<svg width="40" height="40" viewBox="0 0 40 40" fill="none" xmlns="http://www.w3.org/2000/svg">
<path d="M20.03 39.06C9.52 39.06 1 30.54 1 20.03C1 9.52 9.52 1 20.03 1C30.54 1 39.06 9.52 39.06 20.03C39.06 30.54 30.54 39.06 20.03 39.06Z" stroke="#111111" stroke-width="1.5" stroke-miterlimit="10"/>
<path d="M24.2746 11.0407L24.2728 11.0406C23.1611 10.9901 22.822 10.9801 20.0301 10.9801C17.2481 10.9801 16.9091 10.9901 15.7876 11.0406L15.7876 11.0406L15.7856 11.0407C14.7105 11.0934 14.1092 11.275 13.6932 11.4325L13.6932 11.4324L13.6894 11.4339C13.1357 11.6486 12.7365 11.9066 12.3166 12.3265L12.3165 12.3265L12.3117 12.3314C11.9096 12.7448 11.6405 13.1407 11.4239 13.6993L11.4239 13.6993L11.4225 13.7032C11.265 14.1192 11.0834 14.7205 11.0307 15.7956L11.0306 15.7974C10.9801 16.9091 10.9701 17.2482 10.9701 20.0401C10.9701 22.832 10.9801 23.1711 11.0306 24.2828L11.0307 24.2846C11.0834 25.3597 11.265 25.961 11.4225 26.377L11.4224 26.3771L11.4239 26.3809C11.6386 26.9346 11.8966 27.3337 12.3166 27.7537L12.3165 27.7537L12.3214 27.7585C12.7348 28.1606 13.1307 28.4297 13.6893 28.6463L13.6932 28.6477C14.1092 28.8052 14.7105 28.9868 15.7856 29.0395L15.7874 29.0396C16.899 29.0901 17.2382 29.1001 20.0301 29.1001C22.822 29.1001 23.1611 29.0901 24.2728 29.0396L24.2746 29.0395C25.3496 28.9868 25.951 28.8052 26.367 28.6477L26.367 28.6478L26.3709 28.6463C26.9256 28.4312 27.3344 28.1629 27.7437 27.7537L27.7437 27.7537L27.7485 27.7488C28.1506 27.3354 28.4197 26.9395 28.6363 26.3809L28.6377 26.377C28.7952 25.961 28.9768 25.3596 29.0295 24.2846L29.0296 24.2828C29.0801 23.1711 29.0901 22.832 29.0901 20.0401C29.0901 17.2482 29.0801 16.9091 29.0296 15.7974L29.0295 15.7956C28.9768 14.7206 28.7952 14.1192 28.6377 13.7032L28.6378 13.7031L28.6363 13.6993C28.4216 13.1456 28.1636 12.7465 27.7437 12.3265L27.7437 12.3265L27.7388 12.3217C27.3254 11.9196 26.9295 11.6505 26.3709 11.4339L26.3709 11.4339L26.367 11.4325C25.951 11.275 25.3496 11.0934 24.2746 11.0407ZM13.3823 10.6157L13.3834 10.6153C13.9864 10.3777 14.6913 10.2074 15.7526 10.1596C16.8509 10.1101 17.2018 10.1001 20.0301 10.1001C22.8664 10.1001 23.2088 10.1101 24.3053 10.1595C25.3723 10.2173 26.0771 10.379 26.6768 10.6153L26.6768 10.6154L26.6838 10.618C27.3087 10.8534 27.8279 11.175 28.3566 11.7037C28.8824 12.2295 29.1967 12.7491 29.4445 13.3823L29.4449 13.3834C29.6824 13.9864 29.8528 14.6913 29.9006 15.7526C29.9501 16.8509 29.9601 17.2018 29.9601 20.0301C29.9601 22.8564 29.9501 23.2087 29.9007 24.3052C29.8429 25.3723 29.6812 26.0771 29.4449 26.6768L29.4448 26.6768L29.4422 26.6838C29.2068 27.3086 28.8852 27.8279 28.3566 28.3565C27.8307 28.8824 27.3111 29.1967 26.6779 29.4445L26.6768 29.4449C26.0738 29.6824 25.3689 29.8528 24.3076 29.9006C23.2093 29.9501 22.8584 29.9601 20.0301 29.9601C17.2038 29.9601 16.8515 29.9501 15.755 29.9007C14.6879 29.8429 13.9831 29.6812 13.3834 29.4449L13.3834 29.4448L13.3764 29.4422C12.7516 29.2068 12.2323 28.8852 11.7037 28.3565C11.1778 27.8307 10.8635 27.3111 10.6157 26.6779L10.6153 26.6768C10.3778 26.0738 10.2074 25.3689 10.1596 24.3076C10.1101 23.2093 10.1001 22.8584 10.1001 20.0301C10.1001 17.2037 10.1101 16.8514 10.1595 15.7549C10.2173 14.6879 10.3791 13.9831 10.6153 13.3834L10.6154 13.3834L10.618 13.3764C10.8535 12.7515 11.175 12.2323 11.7037 11.7037C12.2295 11.1778 12.7491 10.8635 13.3823 10.6157Z" fill="#111111" stroke="#111111"/>
<path d="M15.1702 20.0302C15.1702 17.3463 17.3463 15.1702 20.0302 15.1702C22.714 15.1702 24.8902 17.3463 24.8902 20.0302C24.8902 22.714 22.714 24.8902 20.0302 24.8902C17.3463 24.8902 15.1702 22.714 15.1702 20.0302ZM16.0502 20.0302C16.0502 22.2263 17.834 24.0102 20.0302 24.0102C22.2263 24.0102 24.0102 22.2263 24.0102 20.0302C24.0102 17.834 22.2263 16.0502 20.0302 16.0502C17.834 16.0502 16.0502 17.834 16.0502 20.0302Z" fill="#111111" stroke="#111111"/>
<path d="M26.3601 14.4602C26.3601 14.8741 26.024 15.2102 25.6101 15.2102C25.1962 15.2102 24.8601 14.8741 24.8601 14.4602C24.8601 14.0463 25.1962 13.7102 25.6101 13.7102C26.0166 13.7102 26.3601 14.0489 26.3601 14.4602Z" fill="#111111" stroke="#111111"/>
</svg>
