<svg width="48" height="48" viewBox="0 0 48 48" fill="none" xmlns="http://www.w3.org/2000/svg">
<path d="M23.73 46.96C10.9 46.96 0.5 36.56 0.5 23.73C0.5 10.9 10.9 0.5 23.73 0.5C36.56 0.5 46.96 10.9 46.96 23.73C46.96 36.56 36.56 46.96 23.73 46.96Z" fill="white" stroke="#111111" stroke-miterlimit="10"/>
<path d="M23.5 11.5C16.8811 11.5 11.5 16.8811 11.5 23.5C11.5 30.1189 16.8811 35.5 23.5 35.5C30.1189 35.5 35.5 30.1189 35.5 23.5C35.5 16.8874 30.1189 11.5 23.5 11.5ZM33.8074 22.6726H29.2916C29.1779 18.9274 28.3063 15.7569 26.9737 13.7611C30.7253 15.1 33.4789 18.5484 33.8074 22.6726ZM23.5 33.8453C21.6242 33.8453 19.5526 29.98 19.3632 24.3274H27.6368C27.4474 29.98 25.3758 33.8453 23.5 33.8453ZM19.3632 22.6726C19.5526 17.0263 21.6242 13.1547 23.5 13.1547C25.3758 13.1547 27.4474 17.02 27.6368 22.6726H19.3632ZM20.0263 13.7611C18.6937 15.7569 17.8221 18.9337 17.7084 22.6726H13.1926C13.5211 18.5484 16.2747 15.1 20.0263 13.7611ZM13.1926 24.3274H17.7084C17.8221 28.0726 18.6937 31.2432 20.0263 33.239C16.2747 31.9 13.5211 28.4516 13.1926 24.3274ZM26.98 33.2453C28.3126 31.2495 29.1842 28.0726 29.2979 24.3337H33.8137C33.4789 28.4516 30.7253 31.9 26.98 33.2453Z" fill="#111111"/>
</svg>
